<svg xmlns="http://www.w3.org/2000/svg" xmlns:xlink="http://www.w3.org/1999/xlink" version="1.1" x="0px" y="0px" width="100px" height="100px" viewBox="5.0 -10.0 100.0 135.0" enable-background="new 0 0 100 100" xml:space="preserve">
<g id="Captions">
</g>
<g id="Your_Icon">
	<path d="M62.026,65.42c0.098,0,0.19-0.005,0.279-0.012c0.049-0.005,0.097-0.012,0.146-0.019c0.024-0.003,0.046-0.006,0.07-0.01   c0.696-0.102,1.366-0.418,1.903-0.954c0.535-0.536,0.852-1.206,0.954-1.901c0.006-0.03,0.011-0.063,0.014-0.094   c0.004-0.04,0.011-0.078,0.013-0.119c0.01-0.093,0.015-0.188,0.015-0.29V40.66c0-1.877-1.522-3.398-3.399-3.399   c-1.878-0.001-3.4,1.521-3.399,3.399L58.62,53.812L40.382,35.575c-1.327-1.329-3.48-1.328-4.808-0.001s-1.327,3.479,0.001,4.809   L53.812,58.62h-13.15c-1.879,0.001-3.401,1.523-3.401,3.401s1.522,3.399,3.399,3.399l21.357,0.001   C62.021,65.42,62.022,65.422,62.026,65.42z"/>
	<path d="M25.958,25.958c-13.277,13.277-13.277,34.806,0,48.084c13.278,13.277,34.806,13.276,48.084,0   c13.277-13.278,13.277-34.807,0-48.085C60.764,12.681,39.236,12.68,25.958,25.958z M69.232,69.234   c-10.621,10.621-27.844,10.621-38.467,0c-10.621-10.622-10.621-27.847,0-38.468c10.623-10.623,27.846-10.622,38.467,0   C79.855,41.388,79.855,58.611,69.232,69.234z"/>
</g>
<text x="0.0" y="117.5" font-size="5.0" font-weight="bold" font-family="Helvetica Neue, Helvetica, Arial-Unicode, Arial, Sans-serif" fill="#000000">Created by Jamison Wieser</text><text x="0.0" y="122.5" font-size="5.0" font-weight="bold" font-family="Helvetica Neue, Helvetica, Arial-Unicode, Arial, Sans-serif" fill="#000000">from the Noun Project</text></svg>