<svg xmlns="http://www.w3.org/2000/svg" xmlns:xlink="http://www.w3.org/1999/xlink" version="1.1" id="Layer_1" x="0px" y="0px" width="100px" height="62.5px" viewBox="5.0 -6.25 100.0 84.375" style="enable-background:new 0 0 100 62.5;" xml:space="preserve">
<path style="fill:#010101;" d="M75,12.5c-1.184,0-2.307,0.189-3.442,0.348C67.199,5.146,59.143,0,50,0  c-9.338,0-17.395,5.206-21.691,12.812C27.209,12.665,26.111,12.5,25,12.5c-13.781,0-25,11.212-25,25c0,13.794,11.219,25,25,25h50  c13.781,0,25-11.206,25-25C100,23.712,88.781,12.5,75,12.5z M75,50H25c-6.896,0-12.5-5.609-12.5-12.5  c0-6.854,6.066-12.14,12.512-12.329c0.025,2.948,0.537,5.841,1.562,8.575l11.707-4.382C37.756,27.979,37.5,26.508,37.5,25  c0-6.891,5.604-12.5,12.5-12.5c4.041,0,7.703,2.002,9.998,5.121C53.967,22.187,50,29.357,50,37.5h12.5C62.5,30.609,68.104,25,75,25  s12.5,5.609,12.5,12.5S81.896,50,75,50z"/>
<text x="0.0" y="73.4375" font-size="3.125" font-weight="bold" font-family="Helvetica Neue, Helvetica, Arial-Unicode, Arial, Sans-serif" fill="#000000">Created by P.J. Onori</text><text x="0.0" y="76.5625" font-size="3.125" font-weight="bold" font-family="Helvetica Neue, Helvetica, Arial-Unicode, Arial, Sans-serif" fill="#000000">from the Noun Project</text></svg>