<?xml version="1.0" encoding="UTF-8" standalone="no"?>
<!-- Created with Inkscape (http://www.inkscape.org/) -->

<svg
   xmlns:dc="http://purl.org/dc/elements/1.1/"
   xmlns:cc="http://creativecommons.org/ns#"
   xmlns:rdf="http://www.w3.org/1999/02/22-rdf-syntax-ns#"
   xmlns:svg="http://www.w3.org/2000/svg"
   xmlns="http://www.w3.org/2000/svg"
   xmlns:sodipodi="http://sodipodi.sourceforge.net/DTD/sodipodi-0.dtd"
   xmlns:inkscape="http://www.inkscape.org/namespaces/inkscape"
   width="1000"
   height="1000"
   id="svg2985"
   version="1.1"
   inkscape:version="0.48.5 r10040"
   sodipodi:docname="icon.svg">
  <defs
     id="defs2987" />
  <sodipodi:namedview
     id="base"
     pagecolor="#ffffff"
     bordercolor="#666666"
     borderopacity="1.0"
     inkscape:pageopacity="0.0"
     inkscape:pageshadow="2"
     inkscape:zoom="0.7"
     inkscape:cx="349.04421"
     inkscape:cy="580.20284"
     inkscape:document-units="px"
     inkscape:current-layer="layer1"
     showgrid="false"
     inkscape:window-width="1920"
     inkscape:window-height="1012"
     inkscape:window-x="-2"
     inkscape:window-y="-3"
     inkscape:window-maximized="1"
     inkscape:snap-global="true" />
  <metadata
     id="metadata2990">
    <rdf:RDF>
      <cc:Work
         rdf:about="">
        <dc:format>image/svg+xml</dc:format>
        <dc:type
           rdf:resource="http://purl.org/dc/dcmitype/StillImage" />
        <dc:title></dc:title>
      </cc:Work>
    </rdf:RDF>
  </metadata>
  <g
     inkscape:label="Layer 1"
     inkscape:groupmode="layer"
     id="layer1"
     transform="translate(0,-52.362183)">
    <path
       inkscape:connector-curvature="0"
       style="fill:#010101"
       d="m 589.94709,487.04472 c -4.25991,0 -8.30031,0.6584 -12.38392,1.2123 C 561.87999,461.42634 532.89544,443.49975 500,443.49975 c -33.59706,0 -62.58515,18.13563 -78.0417,44.63185 -3.95765,-0.51209 -7.9081,-1.08688 -11.9054,-1.08688 -49.58238,0 -89.94709,39.05808 -89.94709,87.08995 0,48.05276 40.3647,87.08995 89.94709,87.08995 h 179.89419 c 49.58244,0 89.94709,-39.03719 89.94709,-87.08995 0,-48.03187 -40.36465,-87.08995 -89.94709,-87.08995 z m 0,130.63493 H 410.0529 c -24.81099,0 -44.97352,-19.53953 -44.97352,-43.54498 0,-23.8766 21.82477,-42.29091 45.01672,-42.94931 0.0899,10.26968 1.93207,20.34771 5.6199,29.87189 l 42.12042,-15.26515 c -1.88889,-4.82479 -2.80995,-9.94912 -2.80995,-15.2024 0,-24.0055 20.16253,-43.54498 44.97353,-43.54498 14.53903,0 27.71452,6.97415 35.97166,17.83949 C 514.27283,520.79031 500,545.76774 500,574.13467 h 44.97356 c 0,-24.00549 20.16252,-43.54497 44.97353,-43.54497 24.81102,0 44.97355,19.53948 44.97355,43.54497 0,24.00545 -20.16253,43.54498 -44.97355,43.54498 z"
       id="path3086" />
    <path
       inkscape:connector-curvature="0"
       id="printer"
       d="m 959.05558,848.92291 h -31.03511 c -3.03168,-19.50259 -18.26362,-40.155 -35.79508,-57.7364 -18.68833,-18.04725 -38.85602,-32.51422 -55.42082,-34.49358 -0.90754,-0.11788 -1.80125,-0.20434 -2.88536,-0.21809 H 725.0987 c -1.74391,0 -3.44176,0.68376 -4.67218,1.92159 -1.216,1.20837 -1.93373,2.91088 -1.93373,4.65741 v 85.85532 h -30.39073 c -16.16935,-2e-4 -29.29219,13.0405 -29.29219,29.1084 v 129.16864 h 59.66809 v 30.2581 c 0,1.7172 0.67424,3.3329 1.93373,4.6136 1.25949,1.2516 2.91462,1.9059 4.67218,1.9059 h 196.91694 c 1.7281,0 3.39786,-0.6543 4.65735,-1.9059 1.2595,-1.2221 2.02132,-2.8816 2.02132,-4.6136 v -30.2436 h 59.65346 V 878.0321 c 0.0146,-16.0679 -13.09358,-29.1086 -29.27755,-29.1086 z M 915.42496,1030.8651 H 731.67475 v -45.49632 h 183.75021 v 45.49632 z m 0,-155.80282 c 0,-0.42244 0,-0.90186 -0.0395,-1.39699 -0.23331,-0.99027 -0.90754,-1.96482 -1.81707,-2.91068 H 731.67772 V 769.60278 h 102.31781 v 0.0145 c 4.48158,-0.27704 8.31898,4.10431 11.2775,14.14669 2.69476,9.51837 3.35396,21.96236 3.35396,30.59302 0.0198,6.3165 -0.27878,10.56621 -0.27878,10.56621 l -0.52792,6.95703 7.01539,0.0786 c 0.0198,0 16.22787,0.2181 32.16292,3.78405 15.27584,3.30384 27.15382,9.83863 28.38405,17.24679 0.0395,0.65428 0.0395,1.32428 0.0395,1.93534 v 20.14293 z" />
    <rect
       x="33.465843"
       y="379.10291"
       width="246.72319"
       height="16.319113"
       id="rect3069" />
    <g
       transform="matrix(4.8431223,0,0,4.4943853,-40.537057,18.774539)"
       id="g3071">
      <path
         inkscape:connector-curvature="0"
         d="M 70.831,18.315 V 9.971 H 10.666 V 78.434 H 70.831 V 70.09 C 82.799,70.09 92.5,58.499 92.5,44.207 92.5,29.906 82.799,18.315 70.831,18.315 z m 0,41.632 V 28.458 c 6.252,0 11.526,7.211 11.526,15.749 0,8.528 -5.274,15.74 -11.526,15.74 z"
         id="path3073" />
    </g>
    <g
       transform="matrix(1.6231002,0,0,1.6230985,593.13071,628.35083)"
       id="Your_Icon-1">
      <path
         inkscape:connector-curvature="0"
         d="m 62.026,65.42 c 0.098,0 0.19,-0.005 0.279,-0.012 0.049,-0.005 0.097,-0.012 0.146,-0.019 0.024,-0.003 0.046,-0.006 0.07,-0.01 0.696,-0.102 1.366,-0.418 1.903,-0.954 0.535,-0.536 0.852,-1.206 0.954,-1.901 0.006,-0.03 0.011,-0.063 0.014,-0.094 0.004,-0.04 0.011,-0.078 0.013,-0.119 0.01,-0.093 0.015,-0.188 0.015,-0.29 V 40.66 c 0,-1.877 -1.522,-3.398 -3.399,-3.399 -1.878,-0.001 -3.4,1.521 -3.399,3.399 L 58.62,53.812 40.382,35.575 c -1.327,-1.329 -3.48,-1.328 -4.808,-0.001 -1.328,1.327 -1.327,3.479 0.001,4.809 L 53.812,58.62 h -13.15 c -1.879,0.001 -3.401,1.523 -3.401,3.401 0,1.878 1.522,3.399 3.399,3.399 l 21.357,0.001 c 0.004,-0.001 0.005,10e-4 0.009,-0.001 z"
         id="path3370-4" />
      <path
         inkscape:connector-curvature="0"
         d="m 25.958,25.958 c -13.277,13.277 -13.277,34.806 0,48.084 13.278,13.277 34.806,13.276 48.084,0 13.277,-13.278 13.277,-34.807 0,-48.085 C 60.764,12.681 39.236,12.68 25.958,25.958 z m 43.274,43.276 c -10.621,10.621 -27.844,10.621 -38.467,0 -10.621,-10.622 -10.621,-27.847 0,-38.468 10.623,-10.623 27.846,-10.622 38.467,0 10.623,10.622 10.623,27.845 0,38.468 z"
         id="path3372-6" />
    </g>
    <g
       transform="matrix(1.6231002,0,0,1.6230985,257.41642,354.06511)"
       id="Your_Icon-1-7">
      <path
         inkscape:connector-curvature="0"
         d="m 62.026,65.42 c 0.098,0 0.19,-0.005 0.279,-0.012 0.049,-0.005 0.097,-0.012 0.146,-0.019 0.024,-0.003 0.046,-0.006 0.07,-0.01 0.696,-0.102 1.366,-0.418 1.903,-0.954 0.535,-0.536 0.852,-1.206 0.954,-1.901 0.006,-0.03 0.011,-0.063 0.014,-0.094 0.004,-0.04 0.011,-0.078 0.013,-0.119 0.01,-0.093 0.015,-0.188 0.015,-0.29 V 40.66 c 0,-1.877 -1.522,-3.398 -3.399,-3.399 -1.878,-0.001 -3.4,1.521 -3.399,3.399 L 58.62,53.812 40.382,35.575 c -1.327,-1.329 -3.48,-1.328 -4.808,-0.001 -1.328,1.327 -1.327,3.479 0.001,4.809 L 53.812,58.62 h -13.15 c -1.879,0.001 -3.401,1.523 -3.401,3.401 0,1.878 1.522,3.399 3.399,3.399 l 21.357,0.001 c 0.004,-0.001 0.005,10e-4 0.009,-0.001 z"
         id="path3370-4-0" />
      <path
         inkscape:connector-curvature="0"
         d="m 25.958,25.958 c -13.277,13.277 -13.277,34.806 0,48.084 13.278,13.277 34.806,13.276 48.084,0 13.277,-13.278 13.277,-34.807 0,-48.085 C 60.764,12.681 39.236,12.68 25.958,25.958 z m 43.274,43.276 c -10.621,10.621 -27.844,10.621 -38.467,0 -10.621,-10.622 -10.621,-27.847 0,-38.468 10.623,-10.623 27.846,-10.622 38.467,0 10.623,10.622 10.623,27.845 0,38.468 z"
         id="path3372-6-4" />
    </g>
  </g>
</svg>
