<svg xmlns="http://www.w3.org/2000/svg" xmlns:xlink="http://www.w3.org/1999/xlink" version="1.1" id="Layer_1" x="0px" y="0px" width="32px" height="32px" viewBox="1.6 -3.2 32.0 43.2" enable-background="new 0 0 32 32" xml:space="preserve">
<path id="printer" d="M25.25,12.475h-2.119c-0.207-1.34-1.247-2.759-2.444-3.967c-1.276-1.24-2.653-2.234-3.784-2.37  c-0.062-0.008-0.123-0.014-0.197-0.015h-7.43c-0.119,0-0.235,0.047-0.319,0.132c-0.083,0.083-0.132,0.2-0.132,0.32v5.899H6.75  c-1.104,0-2,0.896-2,2v8.875h4.074v2.079c0,0.118,0.046,0.229,0.132,0.317c0.086,0.086,0.199,0.131,0.319,0.131h13.445  c0.118,0,0.232-0.045,0.318-0.131c0.086-0.084,0.138-0.198,0.138-0.317V23.35h4.073v-8.875C27.25,13.371,26.355,12.475,25.25,12.475  z M22.271,24.976H9.725V21.85h12.546V24.976z M22.271,14.271c0-0.029,0-0.062-0.003-0.096c-0.016-0.068-0.062-0.135-0.124-0.2H9.725  v-6.95h6.986v0.001c0.306-0.019,0.568,0.282,0.77,0.972c0.184,0.654,0.229,1.509,0.229,2.102c0.002,0.434-0.019,0.726-0.019,0.726  l-0.036,0.478l0.479,0.005c0.002,0,1.108,0.015,2.196,0.26c1.043,0.227,1.854,0.676,1.938,1.185  c0.003,0.045,0.003,0.091,0.003,0.133V14.271z"/>
<text x="0.0" y="37.6" font-size="1.6" font-weight="bold" font-family="Helvetica Neue, Helvetica, Arial-Unicode, Arial, Sans-serif" fill="#000000">Created by Dmitry Baranovskiy</text><text x="0.0" y="39.2" font-size="1.6" font-weight="bold" font-family="Helvetica Neue, Helvetica, Arial-Unicode, Arial, Sans-serif" fill="#000000">from the Noun Project</text></svg>